# xmcd
#
# Track frame offsets:
#	150
#	18253
#	31990
#	46122
#	65714
#	82154
#	98123
#	119004
#	135261
#	157296
#	174902
#	191015
#
# Disc length: 2830 seconds
#
# Revision: 0
# Processed by: cddbd v1.5.2PL0 Copyright (c) Steve Scherf et al.
# Submitted via: EasyCDDAExtractor 10.0.2.1
#
DISCID=9f0b0c0c
DTITLE=Ninni Poij‰rvi - Virta
DYEAR=2008
DGENRE=Country
TTITLE0=S‰ oot mun
TTITLE1=Perille
TTITLE2=Lasiparveke
TTITLE3=Soita kitaraa
TTITLE4=Virta
TTITLE5=Tuhka
TTITLE6=Laiva on lastattu
TTITLE7=T‰llaisena iltana
TTITLE8=Ei mit‰‰n
TTITLE9=Siivet
TTITLE10=Vanhat jutut
TTITLE11=Maailma
EXTD=
EXTT0=
EXTT1=
EXTT2=
EXTT3=
EXTT4=
EXTT5=
EXTT6=
EXTT7=
EXTT8=
EXTT9=
EXTT10=
EXTT11=
PLAYORDER=
